# Blender 3.3.1
# www.blender.org
mtllib testing.mtl
o Cube
v 1.000000 1.000000 -1.000000
v 1.000000 -1.000000 -1.000000
v 1.000000 1.000000 1.000000
v 1.000000 -1.000000 1.000000
v -1.000000 1.000000 -1.000000
v -1.000000 -1.000000 -1.000000
v -1.000000 1.000000 1.000000
v -1.000000 -1.000000 1.000000
vn -0.0000 1.0000 -0.0000
vn -0.0000 -0.0000 1.0000
vn -1.0000 -0.0000 -0.0000
vn -0.0000 -1.0000 -0.0000
vn 1.0000 -0.0000 -0.0000
vn -0.0000 -0.0000 -1.0000
vt 0.625000 0.500000
vt 0.375000 0.500000
vt 0.625000 0.750000
vt 0.375000 0.750000
vt 0.875000 0.500000
vt 0.625000 0.250000
vt 0.125000 0.500000
vt 0.375000 0.250000
vt 0.875000 0.750000
vt 0.625000 1.000000
vt 0.625000 0.000000
vt 0.375000 0.000000
vt 0.375000 1.000000
vt 0.125000 0.750000
s 0
usemtl Material
f 5/5/1 3/3/1 1/1/1
f 3/3/2 8/13/2 4/4/2
f 7/11/3 6/8/3 8/12/3
f 2/2/4 8/14/4 6/7/4
f 1/1/5 4/4/5 2/2/5
f 5/6/6 2/2/6 6/8/6
f 5/5/1 7/9/1 3/3/1
f 3/3/2 7/10/2 8/13/2
f 7/11/3 5/6/3 6/8/3
f 2/2/4 4/4/4 8/14/4
f 1/1/5 3/3/5 4/4/5
f 5/6/6 1/1/6 2/2/6
o Cube.001
v 1.899927 0.325713 1.684957
v 1.899927 -1.674287 1.684957
v 1.899927 0.325713 3.684957
v 1.899927 -1.674287 3.684957
v -0.100073 0.325713 1.684957
v -0.100073 -1.674287 1.684957
v -0.100073 0.325713 3.684957
v -0.100073 -1.674287 3.684957
vn -0.0000 1.0000 -0.0000
vn -0.0000 -0.0000 1.0000
vn -1.0000 -0.0000 -0.0000
vn -0.0000 -1.0000 -0.0000
vn 1.0000 -0.0000 -0.0000
vn -0.0000 -0.0000 -1.0000
vt 0.625000 0.500000
vt 0.375000 0.500000
vt 0.625000 0.750000
vt 0.375000 0.750000
vt 0.875000 0.500000
vt 0.625000 0.250000
vt 0.125000 0.500000
vt 0.375000 0.250000
vt 0.875000 0.750000
vt 0.625000 1.000000
vt 0.625000 0.000000
vt 0.375000 0.000000
vt 0.375000 1.000000
vt 0.125000 0.750000
s 0
usemtl Material
f 13/19/7 11/17/7 9/15/7
f 11/17/8 16/27/8 12/18/8
f 15/25/9 14/22/9 16/26/9
f 10/16/10 16/28/10 14/21/10
f 9/15/11 12/18/11 10/16/11
f 13/20/12 10/16/12 14/22/12
f 13/19/7 15/23/7 11/17/7
f 11/17/8 15/24/8 16/27/8
f 15/25/9 13/20/9 14/22/9
f 10/16/10 12/18/10 16/28/10
f 9/15/11 11/17/11 12/18/11
f 13/20/12 9/15/12 10/16/12
o Cube.002
v 0.277383 1.339770 -4.322866
v 0.277383 -0.660230 -4.322866
v 0.277383 1.339770 -2.322866
v 0.277383 -0.660230 -2.322866
v -1.722617 1.339770 -4.322866
v -1.722617 -0.660230 -4.322866
v -1.722617 1.339770 -2.322866
v -1.722617 -0.660230 -2.322866
vn -0.0000 1.0000 -0.0000
vn -0.0000 -0.0000 1.0000
vn -1.0000 -0.0000 -0.0000
vn -0.0000 -1.0000 -0.0000
vn 1.0000 -0.0000 -0.0000
vn -0.0000 -0.0000 -1.0000
vt 0.625000 0.500000
vt 0.375000 0.500000
vt 0.625000 0.750000
vt 0.375000 0.750000
vt 0.875000 0.500000
vt 0.625000 0.250000
vt 0.125000 0.500000
vt 0.375000 0.250000
vt 0.875000 0.750000
vt 0.625000 1.000000
vt 0.625000 0.000000
vt 0.375000 0.000000
vt 0.375000 1.000000
vt 0.125000 0.750000
s 0
usemtl Material
f 21/33/13 19/31/13 17/29/13
f 19/31/14 24/41/14 20/32/14
f 23/39/15 22/36/15 24/40/15
f 18/30/16 24/42/16 22/35/16
f 17/29/17 20/32/17 18/30/17
f 21/34/18 18/30/18 22/36/18
f 21/33/13 23/37/13 19/31/13
f 19/31/14 23/38/14 24/41/14
f 23/39/15 21/34/15 22/36/15
f 18/30/16 20/32/16 24/42/16
f 17/29/17 19/31/17 20/32/17
f 21/34/18 17/29/18 18/30/18
