# Blender 3.4.0
# www.blender.org
mtllib labyrinth_of_bernard.mtl
o Cube
v -11.853298 -13.056281 0.924201
v -1.365142 -0.035805 1.408324
v -6.375258 -13.056281 -7.589979
v -1.365142 -0.035805 -2.579863
v 13.093603 -13.056281 0.659095
v 2.623045 -0.035805 1.408324
v 7.633162 -13.056281 -7.589979
v 2.623045 -0.035805 -2.579863
v -1.743355 -0.035805 -0.585769
v 0.628952 -0.035805 -3.244891
v 3.006084 -0.035805 -0.585769
v 0.628952 -0.035805 1.408324
v 0.628952 -0.035805 -0.585769
v -1.365142 7.071641 3.607827
v 2.623045 7.071641 3.607827
v 0.628952 7.071641 3.607827
v 20.760563 -12.983621 4.759743
v 15.750446 0.036856 6.424379
v 15.750446 7.144302 8.623882
v -19.381557 -13.298484 4.759743
v -14.371441 -0.278008 6.424379
v -14.371441 6.829438 8.623882
v 0.628952 2.582372 2.218557
v 1.599962 -0.035805 1.408324
v -0.395235 -0.035805 1.408324
v -0.410309 2.158275 2.087314
v 1.618289 2.087927 2.065544
v 0.628952 -1.110394 3.393978
v 0.628952 1.507783 4.204211
v 1.599962 -1.110394 3.393978
v -0.395235 -1.110394 3.393978
v -0.410309 1.083686 4.072968
v 1.618289 1.013338 4.051198
v 0.628952 -1.519204 5.613238
v 0.628952 1.098972 6.423470
v 1.599962 -1.519204 5.613238
v -0.395235 -1.519204 5.613238
v -0.410309 0.674875 6.292228
v 1.618289 0.604527 6.270457
v 0.628952 -2.149941 8.147867
v 0.628952 0.468235 8.958099
v 1.599962 -2.149941 8.147867
v -0.395235 -2.149941 8.147867
v -0.410309 0.044138 8.826857
v 1.618289 -0.026210 8.805086
v 1.585698 -13.056281 -10.187837
v -8.100322 -13.056281 -3.005330
v 9.899324 -13.056281 -3.706055
v 0.628952 2.881510 2.311130
v 2.070563 -0.035805 1.408324
v -0.915893 -0.035805 1.408324
v -0.870111 2.924444 2.324416
v 2.081318 2.839514 2.298134
v 2.070563 -0.015207 0.811718
v 1.599962 -0.015207 0.811718
v 0.628952 2.602970 0.914032
v -0.410309 2.178873 0.883717
v -0.395235 -0.015207 0.811718
v 1.618289 2.108525 0.861946
v 0.628952 2.902109 0.913060
v -0.915893 -0.015207 0.811718
v -0.870111 2.945042 0.926346
v 2.081318 2.860112 0.900063
v -0.253953 2.927395 0.920885
v 1.587182 2.874400 0.904485
v 0.628952 2.893769 1.479091
v -0.282946 2.920148 1.469375
v 1.593136 2.865610 1.489393
v 0.650625 3.643475 1.490137
v 0.650625 3.651814 0.924105
v 1.608856 3.624106 0.915531
v -0.232279 3.677101 0.931930
v -0.261273 3.669854 1.480421
v 1.614810 3.615315 1.500438
v 0.282673 3.654119 1.486217
v 0.261027 3.662972 0.927558
v 0.269392 3.953725 0.931842
v -0.223914 3.967853 0.936214
v 0.291038 3.944871 1.490500
v -0.252908 3.960606 1.484705
v -0.072649 3.963521 0.934874
v -0.105760 3.956350 1.486273
v -0.069241 4.081984 0.936619
v -0.220506 4.086316 0.937960
v -0.102352 4.074812 1.488018
v -0.249499 4.079069 1.486450
v 0.135045 4.082517 0.936627
v -0.220490 4.086850 0.937967
v 0.101934 4.075346 1.488026
v -0.249484 4.079603 1.486458
v 0.137756 4.239658 0.939706
v -0.217780 4.243991 0.941046
v 0.104644 4.232487 1.491105
v -0.246773 4.236744 1.489537
v 0.830370 4.239658 0.939706
v -0.217780 4.243991 0.941046
v 0.797259 4.232487 1.491105
v -0.246773 4.236744 1.489537
v 0.831970 4.629461 0.944906
v -0.216180 4.633794 0.946246
v 0.798859 4.622290 1.496305
v -0.245173 4.626547 1.494737
vn -0.6179 0.5196 -0.5901
vn -0.2791 0.4365 -0.8553
vn 0.7643 0.4657 -0.4460
vn -1.0000 0.0074 0.0040
vn -0.0000 0.2956 -0.9553
vn -0.0000 1.0000 -0.0000
vn 0.3415 0.2779 -0.8979
vn 0.4505 0.2816 -0.8472
vn -0.3502 0.2769 -0.8948
vn -0.3469 0.3123 -0.8844
vn -0.0000 0.8795 0.4759
vn 1.0000 0.0068 0.0001
vn 0.3864 -0.8111 -0.4390
vn -0.4565 -0.7825 -0.4235
vn 1.0000 0.0059 0.0032
vn -0.4610 -0.8727 -0.1608
vn -0.0000 0.9835 0.1812
vn 1.0000 0.0065 0.0012
vn -1.0000 0.0082 0.0015
vn 0.3905 -0.9054 -0.1668
vn -1.0000 0.0080 0.0020
vn 0.3923 -0.8926 -0.2221
vn -0.0000 0.9704 0.2415
vn -0.4630 -0.8601 -0.2140
vn 1.0000 0.0064 0.0016
vn 0.3523 0.4511 -0.8200
vn -0.8386 0.4441 -0.3155
vn 0.7015 0.4944 -0.5133
vn 0.0288 0.9995 0.0147
vn -0.6074 0.1655 -0.7770
vn 0.1816 0.0619 -0.9814
vn -0.9999 0.0154 0.0005
vn -0.0000 -0.9994 -0.0345
vn -1.0000 0.0086 0.0003
vn 1.0000 -0.0037 -0.0001
vn -0.4476 -0.8941 -0.0153
vn 0.0290 0.9995 0.0147
vn 0.3794 -0.9251 -0.0146
vn -0.0111 -0.0144 0.9998
vn -0.0085 0.0150 -0.9999
vn -0.9982 0.0296 -0.0524
vn -0.0084 0.0150 -0.9999
vn 0.9995 -0.0287 -0.0106
vn 0.9988 -0.0282 -0.0391
vn -0.9982 0.0295 -0.0524
vn 0.0026 -0.9999 -0.0128
vn 0.9978 -0.0296 0.0595
vn -0.9985 0.0183 -0.0525
vn -0.0046 -0.0133 0.9999
vn -0.0035 0.0196 -0.9998
vn -0.0000 -0.9999 -0.0130
vn 0.9980 -0.0184 0.0597
vn -0.9986 0.0048 -0.0527
vn 0.0042 0.9999 0.0133
vn 0.9982 -0.0049 0.0599
vn -0.8976 0.4066 0.1702
vn -0.2849 0.4346 -0.8544
vn 0.8550 0.4920 -0.1642
vn 0.3364 0.3215 -0.8851
vn -0.4430 0.2794 -0.8519
vn 1.0000 0.0069 0.0002
vn 0.2796 0.4677 -0.8385
vn -0.8737 0.4574 -0.1657
vn 0.7748 0.6145 0.1488
vn 0.0305 -0.0032 -0.9995
vn -0.0000 0.0328 -0.9995
vn -0.0077 0.0388 -0.9992
vn -0.0074 0.0511 -0.9987
vn -0.0090 -0.0032 -1.0000
vn -0.0081 0.0307 -0.9995
vn -0.0000 0.0236 -0.9997
vn -0.0254 0.0544 -0.9982
vn -0.9999 0.0154 0.0002
vn -1.0000 0.0086 0.0001
vn -0.4488 -0.8935 -0.0141
vn 0.3782 -0.9256 -0.0158
vn -0.0000 -0.0196 0.9998
vn -0.0000 -0.0133 0.9999
vn -0.0112 -0.0194 0.9997
vn -0.0015 -0.0106 0.9999
vn -0.0046 -0.0135 0.9999
vn -0.0084 0.0148 -0.9999
vn -0.0083 0.0197 -0.9998
vn -0.0000 0.0196 -0.9998
vn -0.0000 0.0133 -0.9999
vn -0.0012 0.0133 -0.9999
vn -0.0035 0.0241 -0.9997
vn 0.0041 0.9999 0.0134
vt 0.375000 0.000000
vt 0.625000 0.000000
vt 0.875000 0.750000
vt 0.375000 0.250000
vt 0.875000 0.500000
vt 0.625000 0.250000
vt 0.375000 0.750000
vt 0.625000 0.750000
vt 0.375000 0.500000
vt 0.625000 0.500000
vt 0.875000 0.625000
vt 0.625000 0.125000
vt 0.750000 0.500000
vt 0.625000 0.375000
vt 0.625000 0.625000
vt 0.750000 0.750000
vt 0.750000 0.625000
vt 0.875000 0.750000
vt 0.625000 0.750000
vt 0.750000 0.750000
vt 0.375000 0.750000
vt 0.625000 0.750000
vt 0.625000 0.750000
vt 0.375000 0.000000
vt 0.875000 0.750000
vt 0.625000 0.000000
vt 0.875000 0.750000
vt 0.750000 0.750000
vt 0.689132 0.750000
vt 0.814201 0.750000
vt 0.815146 0.750000
vt 0.687983 0.750000
vt 0.750000 0.750000
vt 0.750000 0.750000
vt 0.689132 0.750000
vt 0.814201 0.750000
vt 0.815146 0.750000
vt 0.687983 0.750000
vt 0.750000 0.750000
vt 0.750000 0.750000
vt 0.689132 0.750000
vt 0.814201 0.750000
vt 0.815146 0.750000
vt 0.687983 0.750000
vt 0.750000 0.750000
vt 0.750000 0.750000
vt 0.689132 0.750000
vt 0.814201 0.750000
vt 0.815146 0.750000
vt 0.687983 0.750000
vt 0.375000 0.379075
vt 0.375000 0.109686
vt 0.375000 0.636787
vt 0.750000 0.750000
vt 0.659632 0.750000
vt 0.846839 0.750000
vt 0.843969 0.750000
vt 0.658958 0.750000
vt 0.659632 0.750000
vt 0.689132 0.750000
vt 0.750000 0.750000
vt 0.815146 0.750000
vt 0.814201 0.750000
vt 0.687983 0.750000
vt 0.750000 0.750000
vt 0.846839 0.750000
vt 0.843969 0.750000
vt 0.658958 0.750000
vt 0.805345 0.750000
vt 0.689933 0.750000
vt 0.750000 0.750000
vt 0.807163 0.750000
vt 0.689560 0.750000
vt 0.750000 0.750000
vt 0.750000 0.750000
vt 0.689933 0.750000
vt 0.805345 0.750000
vt 0.807163 0.750000
vt 0.689560 0.750000
vt 0.773065 0.750000
vt 0.774422 0.750000
vt 0.774422 0.750000
vt 0.805345 0.750000
vt 0.773065 0.750000
vt 0.807163 0.750000
vt 0.795863 0.750000
vt 0.797939 0.750000
vt 0.795863 0.750000
vt 0.805345 0.750000
vt 0.797939 0.750000
vt 0.807163 0.750000
vt 0.795863 0.750000
vt 0.805345 0.750000
vt 0.797939 0.750000
vt 0.807163 0.750000
vt 0.795863 0.750000
vt 0.805345 0.750000
vt 0.797939 0.750000
vt 0.807163 0.750000
vt 0.795863 0.750000
vt 0.805345 0.750000
vt 0.797939 0.750000
vt 0.807163 0.750000
vt 0.795863 0.750000
vt 0.805345 0.750000
vt 0.797939 0.750000
vt 0.807163 0.750000
s 0
usemtl stone
f 24/29/4 33/38/4 27/32/4
f 12/16/11 30/35/11 24/29/11
f 25/30/12 57/62/12 26/31/12
f 25/30/11 28/33/11 12/16/11
f 26/31/13 29/34/13 32/37/13
f 27/32/14 29/34/14 23/28/14
f 25/30/15 32/37/15 31/36/15
f 29/34/16 39/44/16 35/40/16
f 28/33/17 36/41/17 30/35/17
f 32/37/18 37/42/18 31/36/18
f 31/36/17 34/39/17 28/33/17
f 33/38/19 36/41/19 39/44/19
f 29/34/20 38/43/20 32/37/20
f 39/44/21 42/47/21 45/50/21
f 35/40/22 44/49/22 38/43/22
f 34/39/23 42/47/23 36/41/23
f 35/40/24 45/50/24 41/46/24
f 38/43/25 43/48/25 37/42/25
f 37/42/23 40/45/23 34/39/23
f 52/57/29 67/72/29 62/67/29
f 57/62/30 61/66/30 64/69/30
f 65/70/31 54/59/31 59/64/31
f 51/56/32 62/67/32 61/66/32
f 24/29/34 59/64/34 55/60/34
f 50/55/35 63/68/35 53/58/35
f 27/32/36 56/61/36 59/64/36
f 53/58/37 65/70/37 68/73/37
f 26/31/38 56/61/38 23/28/38
f 75/80/39 82/87/39 80/85/39
f 66/71/39 74/79/39 69/74/39
f 60/65/40 71/76/40 65/70/40
f 69/74/37 71/76/37 70/75/37
f 64/69/41 73/78/41 72/77/41
f 64/69/42 76/81/42 70/75/42
f 65/70/43 74/79/43 68/73/43
f 66/71/39 75/80/39 73/78/39
f 75/80/29 70/75/29 76/81/29
f 82/87/39 86/91/39 80/85/39
f 76/81/44 79/84/44 75/80/44
f 73/78/45 78/83/45 72/77/45
f 72/77/42 81/86/42 77/82/42
f 83/88/46 89/94/46 85/90/46
f 81/86/29 79/84/29 77/82/29
f 81/86/47 85/90/47 82/87/47
f 80/85/45 84/89/45 78/83/45
f 78/83/42 83/88/42 81/86/42
f 90/95/48 92/97/48 88/93/48
f 93/98/49 102/107/49 94/99/49
f 86/91/45 88/93/45 84/89/45
f 92/97/50 99/104/50 91/96/50
f 91/96/51 97/102/51 93/98/51
f 89/94/52 91/96/52 93/98/52
f 96/101/53 102/107/53 100/105/53
f 92/97/6 98/103/6 96/101/6
f 100/105/54 101/106/54 99/104/54
f 97/102/55 99/104/55 101/106/55
f 24/29/4 30/35/4 33/38/4
f 12/16/11 28/33/11 30/35/11
f 25/30/61 58/63/61 57/62/61
f 25/30/11 31/36/11 28/33/11
f 26/31/13 23/28/13 29/34/13
f 27/32/14 33/38/14 29/34/14
f 25/30/15 26/31/15 32/37/15
f 29/34/16 33/38/16 39/44/16
f 28/33/17 34/39/17 36/41/17
f 32/37/18 38/43/18 37/42/18
f 31/36/17 37/42/17 34/39/17
f 33/38/19 30/35/19 36/41/19
f 29/34/20 35/40/20 38/43/20
f 39/44/21 36/41/21 42/47/21
f 35/40/22 41/46/22 44/49/22
f 34/39/23 40/45/23 42/47/23
f 35/40/24 39/44/24 45/50/24
f 38/43/25 44/49/25 43/48/25
f 37/42/23 43/48/23 40/45/23
f 52/57/29 49/54/29 66/71/29
f 67/72/29 64/69/29 62/67/29
f 52/57/29 66/71/29 67/72/29
f 60/65/65 56/61/65 57/62/65
f 57/62/66 58/63/66 61/66/66
f 61/66/67 62/67/67 64/69/67
f 64/69/68 60/65/68 57/62/68
f 56/61/69 60/65/69 65/70/69
f 65/70/70 63/68/70 54/59/70
f 54/59/71 55/60/71 59/64/71
f 59/64/72 56/61/72 65/70/72
f 51/56/73 52/57/73 62/67/73
f 24/29/74 27/32/74 59/64/74
f 50/55/35 54/59/35 63/68/35
f 27/32/75 23/28/75 56/61/75
f 66/71/37 49/54/37 53/58/37
f 53/58/37 63/68/37 65/70/37
f 68/73/37 66/71/37 53/58/37
f 26/31/76 57/62/76 56/61/76
f 80/85/39 73/78/39 75/80/39
f 75/80/39 79/84/39 82/87/39
f 66/71/39 68/73/39 74/79/39
f 60/65/40 70/75/40 71/76/40
f 69/74/37 74/79/37 71/76/37
f 64/69/41 67/72/41 73/78/41
f 70/75/42 60/65/42 64/69/42
f 64/69/42 72/77/42 76/81/42
f 65/70/43 71/76/43 74/79/43
f 73/78/39 67/72/39 66/71/39
f 66/71/39 69/74/39 75/80/39
f 75/80/29 69/74/29 70/75/29
f 82/87/39 85/90/39 86/91/39
f 76/81/44 77/82/44 79/84/44
f 73/78/45 80/85/45 78/83/45
f 77/82/42 76/81/42 72/77/42
f 72/77/42 78/83/42 81/86/42
f 83/88/46 87/92/46 89/94/46
f 81/86/29 82/87/29 79/84/29
f 81/86/47 83/88/47 85/90/47
f 80/85/45 86/91/45 84/89/45
f 78/83/42 84/89/42 83/88/42
f 90/95/48 94/99/48 92/97/48
f 90/95/39 86/91/39 85/90/39
f 85/90/77 89/94/77 93/98/77
f 93/98/78 97/102/78 101/106/78
f 102/107/6 98/103/6 94/99/6
f 94/99/79 90/95/79 85/90/79
f 93/98/80 101/106/80 102/107/80
f 94/99/81 85/90/81 93/98/81
f 86/91/45 90/95/45 88/93/45
f 83/88/82 84/89/82 88/93/82
f 92/97/6 96/101/6 100/105/6
f 83/88/83 88/93/83 92/97/83
f 91/96/84 87/92/84 83/88/84
f 99/104/85 95/100/85 91/96/85
f 92/97/86 100/105/86 99/104/86
f 91/96/87 83/88/87 92/97/87
f 91/96/51 95/100/51 97/102/51
f 89/94/52 87/92/52 91/96/52
f 96/101/53 98/103/53 102/107/53
f 92/97/6 94/99/6 98/103/6
f 100/105/88 102/107/88 101/106/88
f 97/102/55 95/100/55 99/104/55
usemtl grass
f 9/11/6 51/56/6 25/30/6
f 13/17/6 24/29/6 50/55/6
f 8/10/6 13/17/6 11/15/6
f 4/5/6 13/17/6 10/13/6
f 24/29/33 54/59/33 50/55/33
f 51/56/33 58/63/33 25/30/33
f 12/16/6 13/17/6 9/11/6
f 9/11/6 2/3/6 51/56/6
f 25/30/6 12/16/6 9/11/6
f 6/8/6 11/15/6 13/17/6
f 13/17/6 12/16/6 24/29/6
f 50/55/6 6/8/6 13/17/6
f 8/10/6 10/13/6 13/17/6
f 4/5/6 9/11/6 13/17/6
f 24/29/33 55/60/33 54/59/33
f 51/56/33 61/66/33 58/63/33
usemtl darkstone
f 2/2/1 47/52/1 1/1/1
f 4/6/2 46/51/2 3/4/2
f 8/10/3 48/53/3 7/9/3
f 53/58/5 16/20/5 15/19/5
f 15/19/7 18/22/7 6/8/7
f 5/7/8 18/22/8 17/21/8
f 14/18/9 21/25/9 22/27/9
f 1/1/10 21/26/10 2/2/10
f 46/51/26 8/10/26 7/9/26
f 47/52/27 4/6/27 3/4/27
f 11/15/28 5/7/28 48/53/28
f 52/57/5 2/3/5 14/18/5
f 2/2/56 9/12/56 47/52/56
f 4/6/57 10/14/57 46/51/57
f 8/10/58 11/15/58 48/53/58
f 15/19/5 6/8/5 50/55/5
f 53/58/5 49/54/5 16/20/5
f 15/19/5 50/55/5 53/58/5
f 15/19/7 19/23/7 18/22/7
f 5/7/59 6/8/59 18/22/59
f 14/18/9 2/3/9 21/25/9
f 1/1/60 20/24/60 21/26/60
f 46/51/62 10/14/62 8/10/62
f 47/52/63 9/12/63 4/6/63
f 11/15/64 6/8/64 5/7/64
f 16/20/5 49/54/5 52/57/5
f 52/57/5 51/56/5 2/3/5
f 14/18/5 16/20/5 52/57/5
o Plane
v 5.095899 -15.130788 -13.463628
v 7.095899 -15.130788 -13.463628
v 5.095899 -15.130788 -15.463628
v 7.095899 -15.130788 -15.463628
vn -0.0000 1.0000 -0.0000
vt 0.000000 0.000000
vt 1.000000 0.000000
vt 0.000000 1.000000
vt 1.000000 1.000000
s 0
f 104/109/89 105/110/89 103/108/89
f 104/109/89 106/111/89 105/110/89
