# Blender v3.2.0 OBJ File: ''
# www.blender.org
mtllib icosahedron.mtl
o Icosphere
v 0.000000 -1.000000 0.000000
v 0.723600 -0.447215 0.525720
v -0.276385 -0.447215 0.850640
v -0.894425 -0.447215 0.000000
v -0.276385 -0.447215 -0.850640
v 0.723600 -0.447215 -0.525720
v 0.276385 0.447215 0.850640
v -0.723600 0.447215 0.525720
v -0.723600 0.447215 -0.525720
v 0.276385 0.447215 -0.850640
v 0.894425 0.447215 0.000000
v 0.000000 1.000000 0.000000
vt 0.181819 0.000000
vt 0.272728 0.157461
vt 0.090910 0.157461
vt 0.727273 0.000000
vt 0.818182 0.157461
vt 0.636364 0.157461
vt 0.363637 0.314921
vt 0.181819 0.314921
vt 0.000000 0.314921
vt 0.909091 0.314921
vt 0.727273 0.314921
vt 0.545455 0.314921
vt 0.454546 0.157461
vt 0.272728 0.472382
vt 0.818182 0.472382
vt 0.363637 0.000000
vt 0.909091 0.000000
vt 1.000000 0.157461
vt 0.545455 0.000000
vt 0.090910 0.472382
vt 0.636364 0.472382
vt 0.454546 0.472382
vn 0.1876 -0.7947 0.5774
vn -0.4911 -0.7947 -0.3568
vn 0.7946 0.1876 0.5774
vn -0.3035 0.1876 0.9342
vn -0.9822 0.1876 0.0000
vn -0.3035 0.1876 -0.9342
vn 0.7946 0.1876 -0.5774
vn 0.4911 0.7947 0.3568
vn -0.6071 0.7947 0.0000
vn 0.6071 -0.7947 0.0000
vn -0.4911 -0.7947 0.3568
vn 0.1876 -0.7947 -0.5774
vn 0.9822 -0.1876 0.0000
vn 0.3035 -0.1876 0.9342
vn -0.7946 -0.1876 0.5774
vn -0.7946 -0.1876 -0.5774
vn 0.3035 -0.1876 -0.9342
vn -0.1876 0.7947 0.5774
vn -0.1876 0.7947 -0.5774
vn 0.4911 0.7947 -0.3568
usemtl Material.001
s off
f 1/1/1 2/2/1 3/3/1
f 1/4/2 4/5/2 5/6/2
f 2/2/3 11/7/3 7/8/3
f 3/3/4 7/8/4 8/9/4
f 4/5/5 8/10/5 9/11/5
f 5/6/6 9/11/6 10/12/6
f 6/13/7 10/12/7 11/7/7
f 7/8/8 11/7/8 12/14/8
f 9/11/9 8/10/9 12/15/9
usemtl Material.002
f 2/2/10 1/16/10 6/13/10
f 1/17/11 3/18/11 4/5/11
f 1/19/12 5/6/12 6/13/12
f 2/2/13 6/13/13 11/7/13
f 3/3/14 2/2/14 7/8/14
f 4/5/15 3/18/15 8/10/15
f 5/6/16 4/5/16 9/11/16
f 6/13/17 5/6/17 10/12/17
f 8/9/18 7/8/18 12/20/18
f 10/12/19 9/11/19 12/21/19
f 11/7/20 10/12/20 12/22/20
